# xmcd CD database file
#
# Track frame offsets:
#	150
#	22305
#	49957
#	72053
#	91700
#	113758
#
# Disc length: 2012 seconds
#
# Revision: 0
# Processed by: cddbd v1.5.1PL0 Copyright (c) Steve Scherf et al.
# Submitted via: CDex 1.51
#
DISCID=4907da06
DTITLE=urb - bru
DYEAR=2004
DGENRE=Jazz
TTITLE0=CHANGES
TTITLE1=WAH-WHO (Live)
TTITLE2=SOMEHOW (Lost in the city)
TTITLE3=Experiment
TTITLE4=Let me go
TTITLE5=Back int the days (Live)
EXTD=YEAR: 2004
EXTT0=
EXTT1=
EXTT2=
EXTT3=
EXTT4=
EXTT5=
PLAYORDER=
